<svg width="112" height="112" viewBox="0 0 112 112" fill="none" xmlns="http://www.w3.org/2000/svg">
<path d="M110.313 69.5474C102.833 99.5475 72.4463 117.803 42.4427 110.324C12.4531 102.845 -5.80459 72.4577 1.67662 42.4593C9.15258 12.4557 39.5377 -5.80368 69.5325 1.67578C99.5344 9.15525 117.792 39.5456 110.313 69.5474Z" fill="#FFB900"/>
<path d="M80.6853 48.0225C81.7982 40.5711 76.1248 36.5653 68.3671 33.8931L70.8835 23.7992L64.7376 22.2679L62.2876 32.0959C60.6741 31.6934 59.0151 31.3136 57.3666 30.9374L59.8341 21.0447L53.6934 19.5134L51.1751 29.6039C49.8382 29.2994 48.5257 28.9984 47.2517 28.6816L47.2587 28.6501L38.7852 26.5344L37.1507 33.0969C37.1507 33.0969 41.7094 34.1416 41.6132 34.2064C44.1017 34.8276 44.5532 36.4743 44.4762 37.7798L41.6097 49.279C41.7812 49.3228 42.0034 49.3858 42.2484 49.4838L41.6009 49.3228L37.5812 65.4315C37.2767 66.1874 36.505 67.3214 34.7655 66.8909C34.8267 66.9802 30.2995 65.7762 30.2995 65.7762L27.2493 72.8112L35.2467 74.8044C36.7342 75.1772 38.192 75.5674 39.6252 75.9349L37.0825 86.1461L43.2197 87.6774L45.7397 77.5764C47.4144 78.0314 49.0419 78.4514 50.6344 78.8469L48.1249 88.9006L54.2691 90.4318L56.8119 80.2416C67.2891 82.2244 75.1693 81.4246 78.482 71.9502C81.1543 64.3202 78.3508 59.919 72.8383 57.0472C76.8528 56.118 79.8785 53.4773 80.6853 48.0225ZM66.6451 67.7082C64.7446 75.3382 51.8996 71.2152 47.7329 70.1792L51.1069 56.6535C55.2719 57.693 68.6243 59.751 66.6451 67.7082ZM68.5438 47.9123C66.8113 54.8528 56.1189 51.3265 52.6486 50.462L55.7076 38.1946C59.1779 39.0591 70.3498 40.6726 68.5438 47.9123Z" fill="white"/>
</svg>
