<?xml version="1.0" encoding="UTF-8" standalone="no"?>
<!-- Created with Inkscape (http://www.inkscape.org/) -->

<svg
   width="93.12027mm"
   height="8.252388mm"
   viewBox="0 0 93.12027 8.252388"
   version="1.1"
   id="svg5"
   xmlns:inkscape="http://www.inkscape.org/namespaces/inkscape"
   xmlns:sodipodi="http://sodipodi.sourceforge.net/DTD/sodipodi-0.dtd"
   xmlns="http://www.w3.org/2000/svg"
   xmlns:svg="http://www.w3.org/2000/svg">
  <sodipodi:namedview
     id="namedview7"
     pagecolor="#ffffff"
     bordercolor="#000000"
     borderopacity="0.25"
     inkscape:showpageshadow="2"
     inkscape:pageopacity="0.0"
     inkscape:pagecheckerboard="0"
     inkscape:deskcolor="#d1d1d1"
     inkscape:document-units="mm"
     showgrid="false" />
  <defs
     id="defs2" />
  <g
     inkscape:label="Layer 1"
     inkscape:groupmode="layer"
     id="layer1"
     transform="translate(-53.826131,-84.170385)">
    <g
       aria-label="&lt;DesafioTécnico/&gt;"
       id="text243"
       style="font-weight:800;font-size:9.87778px;line-height:13.2292px;font-family:Avenir;-inkscape-font-specification:'Avenir Ultra-Bold';text-align:center;text-anchor:middle;fill:#2b365f;fill-rule:evenodd;stroke-width:0.215;stroke-linejoin:round">
      <path
         d="m 53.82613,90.493523 0.284565,-0.530545 2.797418,-1.2926 -0.260449,0.66077 -2.170411,0.95498 2.440506,1.090029 -0.636654,0.274918 z"
         style="font-weight:bold;font-family:'Corsiva Hebrew';-inkscape-font-specification:'Corsiva Hebrew Bold'"
         id="path2472" />
      <path
         d="m 65.001333,88.670378 q 0,1.003212 -0.458198,1.799029 -0.458198,0.790995 -1.157552,1.21543 -0.525722,0.318327 -1.152729,0.443729 -0.627008,0.125401 -1.485526,0.125401 H 58.215182 V 85.07232 h 2.604493 q 0.877811,0 1.514464,0.149517 0.636654,0.144694 1.070736,0.414789 0.742763,0.453375 1.167199,1.225077 0.429259,0.766878 0.429259,1.808675 z m -1.914784,-0.01447 q 0,-0.709001 -0.26045,-1.210607 -0.255626,-0.506429 -0.81511,-0.790994 -0.284564,-0.139871 -0.583599,-0.188102 -0.294211,-0.05306 -0.89228,-0.05306 h -0.467844 v 4.495162 h 0.467844 q 0.66077,0 0.96945,-0.05788 0.308681,-0.0627 0.602892,-0.221864 0.506429,-0.289388 0.742763,-0.771702 0.236334,-0.487136 0.236334,-1.20096 z"
         style="font-weight:bold;font-family:'Corsiva Hebrew';-inkscape-font-specification:'Corsiva Hebrew Bold'"
         id="path2474" />
      <path
         d="m 71.652436,89.866516 h -3.974263 q 0.03858,0.636653 0.482314,0.974273 0.448551,0.337619 1.316716,0.337619 0.549837,0 1.065912,-0.197748 0.516076,-0.197749 0.81511,-0.424436 h 0.192926 v 1.393886 q -0.588423,0.236333 -1.109321,0.342442 -0.520899,0.106109 -1.15273,0.106109 -1.630219,0 -2.498383,-0.733116 -0.868165,-0.733117 -0.868165,-2.088417 0,-1.340832 0.819933,-2.12218 0.824756,-0.786171 2.257227,-0.786171 1.321539,0 1.987132,0.670416 0.665592,0.665593 0.665592,1.919608 z m -1.726682,-1.017682 q -0.01447,-0.545014 -0.270095,-0.819933 -0.255627,-0.274918 -0.795818,-0.274918 -0.501606,0 -0.824756,0.260449 -0.32315,0.260449 -0.361735,0.834402 z"
         style="font-weight:bold;font-family:'Corsiva Hebrew';-inkscape-font-specification:'Corsiva Hebrew Bold'"
         id="path2476" />
      <path
         d="m 77.584891,90.536931 q 0,0.839226 -0.752409,1.355301 -0.752409,0.511252 -2.059478,0.511252 -0.72347,0 -1.311893,-0.135047 -0.588422,-0.135048 -0.945334,-0.299035 v -1.427648 h 0.159163 q 0.130225,0.09164 0.299035,0.202572 0.173632,0.106109 0.487136,0.231511 0.270096,0.110932 0.612538,0.192925 0.342443,0.07717 0.733117,0.07717 0.511252,0 0.757232,-0.110932 0.24598,-0.115755 0.24598,-0.337619 0,-0.197749 -0.144694,-0.284565 -0.144694,-0.09164 -0.549838,-0.173633 -0.192925,-0.04341 -0.525721,-0.09164 -0.327973,-0.05305 -0.598069,-0.125401 -0.73794,-0.192926 -1.094852,-0.598069 -0.356912,-0.409966 -0.356912,-1.017681 0,-0.781348 0.73794,-1.297424 0.742763,-0.520898 2.025717,-0.520898 0.607715,0 1.162375,0.125401 0.559484,0.120579 0.872988,0.26045 v 1.36977 h -0.149518 q -0.38585,-0.265273 -0.882633,-0.429259 -0.49196,-0.16881 -0.998389,-0.16881 -0.419613,0 -0.709001,0.115755 -0.284565,0.115756 -0.284565,0.327974 0,0.192925 0.130225,0.294211 0.130224,0.101286 0.612538,0.202571 0.265272,0.05305 0.56913,0.106109 0.30868,0.04823 0.617361,0.125402 0.684885,0.178456 1.012858,0.564307 0.327973,0.381027 0.327973,0.95498 z"
         style="font-weight:bold;font-family:'Corsiva Hebrew';-inkscape-font-specification:'Corsiva Hebrew Bold'"
         id="path2478" />
      <path
         d="m 82.017353,90.840789 v -1.128614 q -0.352089,0.02894 -0.762055,0.08199 -0.409967,0.04823 -0.622185,0.115755 -0.260449,0.08199 -0.40032,0.241157 -0.135048,0.15434 -0.135048,0.409966 0,0.16881 0.02894,0.274919 0.02894,0.106109 0.144694,0.202571 0.110932,0.09646 0.265272,0.144694 0.154341,0.04341 0.482314,0.04341 0.260449,0 0.525722,-0.106109 0.270095,-0.106109 0.472667,-0.279742 z m 0,0.839225 q -0.139871,0.106109 -0.347266,0.255626 -0.207395,0.149518 -0.390674,0.236334 -0.255626,0.115755 -0.530545,0.16881 -0.274918,0.05788 -0.602891,0.05788 -0.771702,0 -1.292601,-0.47749 -0.520898,-0.47749 -0.520898,-1.220253 0,-0.593246 0.265272,-0.96945 0.265273,-0.376205 0.752409,-0.593246 0.482314,-0.217041 1.196138,-0.30868 0.713824,-0.09164 1.480702,-0.135048 v -0.02894 q 0,-0.448551 -0.366558,-0.617361 -0.366558,-0.173633 -1.080382,-0.173633 -0.429259,0 -0.916396,0.15434 -0.487137,0.149517 -0.699354,0.231511 h -0.159164 v -1.30707 q 0.274919,-0.07235 0.89228,-0.16881 0.622184,-0.101285 1.244369,-0.101285 1.480702,0 2.136648,0.458197 0.66077,0.453375 0.66077,1.427648 v 3.684875 h -1.721859 z"
         style="font-weight:bold;font-family:'Corsiva Hebrew';-inkscape-font-specification:'Corsiva Hebrew Bold'"
         id="path2480" />
      <path
         d="m 88.846911,86.022477 h -0.130225 q -0.115755,-0.03376 -0.303858,-0.07717 -0.183279,-0.04341 -0.395497,-0.04341 -0.511252,0 -0.694531,0.183279 -0.178456,0.183279 -0.178456,0.709001 v 0.04341 h 1.340831 v 1.176845 h -1.282953 v 4.239535 H 85.465893 V 88.014432 H 84.72313 v -1.176845 h 0.742763 V 86.68807 q 0,-0.993566 0.525722,-1.490349 0.530545,-0.496783 1.601281,-0.496783 0.38585,0 0.699354,0.02894 0.313504,0.02412 0.554661,0.06752 z"
         style="font-weight:bold;font-family:'Corsiva Hebrew';-inkscape-font-specification:'Corsiva Hebrew Bold'"
         id="path2482" />
      <path
         d="m 91.244009,92.253967 h -1.736328 v -5.41638 h 1.736328 z m 0.04823,-6.188082 h -1.83279 V 84.74917 h 1.832792 z"
         style="font-weight:bold;font-family:'Corsiva Hebrew';-inkscape-font-specification:'Corsiva Hebrew Bold'"
         id="path2484" />
      <path
         d="m 98.420833,89.548189 q 0,1.336008 -0.781347,2.10771 -0.776525,0.766878 -2.18488,0.766878 -1.408356,0 -2.189704,-0.766878 -0.776524,-0.771702 -0.776524,-2.10771 0,-1.345655 0.781348,-2.112533 0.786171,-0.766879 2.18488,-0.766879 1.418001,0 2.189703,0.771702 0.776524,0.771701 0.776524,2.10771 z m -2.136648,1.316715 q 0.16881,-0.207394 0.250803,-0.496782 0.08682,-0.294212 0.08682,-0.810287 0,-0.47749 -0.08682,-0.80064 -0.08682,-0.32315 -0.241157,-0.516076 -0.15434,-0.197748 -0.371381,-0.279742 -0.217041,-0.08199 -0.467844,-0.08199 -0.250803,0 -0.448552,0.06752 -0.192925,0.06752 -0.371381,0.270096 -0.159164,0.188102 -0.255626,0.516075 -0.09164,0.327973 -0.09164,0.824756 0,0.443728 0.08199,0.771702 0.08199,0.32315 0.241157,0.520898 0.15434,0.188102 0.366558,0.274919 0.217041,0.08682 0.49196,0.08682 0.236334,0 0.448552,-0.07717 0.217041,-0.08199 0.366558,-0.270096 z"
         style="font-weight:bold;font-family:'Corsiva Hebrew';-inkscape-font-specification:'Corsiva Hebrew Bold'"
         id="path2486" />
      <path
         d="m 105.38062,86.461382 h -2.24276 v 5.792585 h -1.85209 V 86.461382 H 99.043017 V 85.07232 h 6.337603 z"
         style="font-weight:bold;font-family:'Corsiva Hebrew';-inkscape-font-specification:'Corsiva Hebrew Bold'"
         id="path2488" />
      <path
         d="m 111.73269,89.866516 h -3.97427 q 0.0386,0.636653 0.48232,0.974273 0.44855,0.337619 1.31671,0.337619 0.54984,0 1.06591,-0.197748 0.51608,-0.197749 0.81511,-0.424436 h 0.19293 v 1.393886 q -0.58842,0.236333 -1.10932,0.342442 -0.5209,0.106109 -1.15273,0.106109 -1.63022,0 -2.49838,-0.733116 -0.86817,-0.733117 -0.86817,-2.088417 0,-1.340832 0.81993,-2.12218 0.82476,-0.786171 2.25723,-0.786171 1.32154,0 1.98713,0.670416 0.6656,0.665593 0.6656,1.919608 z M 110.006,88.848834 q -0.0145,-0.545014 -0.27009,-0.819933 -0.25563,-0.274918 -0.79582,-0.274918 -0.50161,0 -0.82476,0.260449 -0.32315,0.260449 -0.36173,0.834402 z m 0.69936,-4.678441 v 0.09646 l -1.69775,1.799029 h -1.18649 l 1.19132,-1.895492 z"
         style="font-weight:bold;font-family:'Corsiva Hebrew';-inkscape-font-specification:'Corsiva Hebrew Bold'"
         id="path2490" />
      <path
         d="m 115.7793,92.398661 q -0.70901,0 -1.29743,-0.168809 -0.5836,-0.16881 -1.01768,-0.520899 -0.42926,-0.352089 -0.66559,-0.887457 -0.23634,-0.535368 -0.23634,-1.254015 0,-0.757232 0.25081,-1.307069 0.25562,-0.549838 0.709,-0.911573 0.4389,-0.342442 1.01286,-0.501606 0.57395,-0.159163 1.19131,-0.159163 0.55466,0 1.02251,0.120578 0.46784,0.120579 0.87298,0.313504 v 1.480702 h -0.24598 q -0.10128,-0.08682 -0.24598,-0.202571 -0.13987,-0.115756 -0.34726,-0.226688 -0.19775,-0.106109 -0.43408,-0.173633 -0.23634,-0.07235 -0.54984,-0.07235 -0.69453,0 -1.07074,0.443729 -0.37138,0.438905 -0.37138,1.196137 0,0.781348 0.38103,1.186491 0.38585,0.405144 1.09003,0.405144 0.32797,0 0.58842,-0.07235 0.26527,-0.07717 0.4389,-0.178456 0.16399,-0.09646 0.28939,-0.202572 0.1254,-0.106109 0.23151,-0.207395 h 0.24598 v 1.480703 q -0.40996,0.192925 -0.85852,0.303857 -0.44372,0.115755 -0.98391,0.115755 z"
         style="font-weight:bold;font-family:'Corsiva Hebrew';-inkscape-font-specification:'Corsiva Hebrew Bold'"
         id="path2492" />
      <path
         d="m 124.21013,92.253967 h -1.74597 v -2.686486 q 0,-0.327973 -0.0338,-0.651123 -0.0338,-0.327973 -0.11576,-0.482313 -0.0965,-0.178456 -0.28456,-0.26045 -0.18328,-0.08199 -0.51608,-0.08199 -0.23633,0 -0.48231,0.07717 -0.24116,0.07717 -0.52573,0.24598 v 3.839215 h -1.73632 v -5.41638 h 1.73632 v 0.598069 q 0.46303,-0.361735 0.88746,-0.554661 0.42926,-0.192925 0.95016,-0.192925 0.87781,0 1.36977,0.511252 0.49678,0.511252 0.49678,1.528934 z"
         style="font-weight:bold;font-family:'Corsiva Hebrew';-inkscape-font-specification:'Corsiva Hebrew Bold'"
         id="path2494" />
      <path
         d="m 127.54292,92.253967 h -1.73633 v -5.41638 h 1.73633 z m 0.0482,-6.188082 h -1.83279 V 84.74917 h 1.83279 z"
         style="font-weight:bold;font-family:'Corsiva Hebrew';-inkscape-font-specification:'Corsiva Hebrew Bold'"
         id="path2496" />
      <path
         d="m 132.00432,92.398661 q -0.709,0 -1.29743,-0.168809 -0.5836,-0.16881 -1.01768,-0.520899 -0.42926,-0.352089 -0.66559,-0.887457 -0.23633,-0.535368 -0.23633,-1.254015 0,-0.757232 0.2508,-1.307069 0.25563,-0.549838 0.709,-0.911573 0.43891,-0.342442 1.01286,-0.501606 0.57395,-0.159163 1.19131,-0.159163 0.55466,0 1.02251,0.120578 0.46784,0.120579 0.87298,0.313504 v 1.480702 h -0.24598 q -0.10128,-0.08682 -0.24598,-0.202571 -0.13987,-0.115756 -0.34726,-0.226688 -0.19775,-0.106109 -0.43408,-0.173633 -0.23634,-0.07235 -0.54984,-0.07235 -0.69453,0 -1.07074,0.443729 -0.37138,0.438905 -0.37138,1.196137 0,0.781348 0.38103,1.186491 0.38585,0.405144 1.09003,0.405144 0.32797,0 0.58842,-0.07235 0.26527,-0.07717 0.43891,-0.178456 0.16398,-0.09646 0.28938,-0.202572 0.12541,-0.106109 0.23151,-0.207395 h 0.24598 v 1.480703 q -0.40996,0.192925 -0.85851,0.303857 -0.44373,0.115755 -0.98392,0.115755 z"
         style="font-weight:bold;font-family:'Corsiva Hebrew';-inkscape-font-specification:'Corsiva Hebrew Bold'"
         id="path2498" />
      <path
         d="m 140.53162,89.548189 q 0,1.336008 -0.78134,2.10771 -0.77653,0.766878 -2.18488,0.766878 -1.40836,0 -2.18971,-0.766878 -0.77652,-0.771702 -0.77652,-2.10771 0,-1.345655 0.78135,-2.112533 0.78617,-0.766879 2.18488,-0.766879 1.418,0 2.1897,0.771702 0.77652,0.771701 0.77652,2.10771 z m -2.13664,1.316715 q 0.1688,-0.207394 0.2508,-0.496782 0.0868,-0.294212 0.0868,-0.810287 0,-0.47749 -0.0868,-0.80064 -0.0868,-0.32315 -0.24116,-0.516076 -0.15434,-0.197748 -0.37138,-0.279742 -0.21704,-0.08199 -0.46784,-0.08199 -0.25081,0 -0.44856,0.06752 -0.19292,0.06752 -0.37138,0.270096 -0.15916,0.188102 -0.25562,0.516075 -0.0916,0.327973 -0.0916,0.824756 0,0.443728 0.082,0.771702 0.082,0.32315 0.24116,0.520898 0.15434,0.188102 0.36656,0.274919 0.21704,0.08682 0.49196,0.08682 0.23633,0 0.44855,-0.07717 0.21704,-0.08199 0.36656,-0.270096 z"
         style="font-weight:bold;font-family:'Corsiva Hebrew';-inkscape-font-specification:'Corsiva Hebrew Bold'"
         id="path2500" />
      <path
         d="m 140.6522,92.35043 2.67684,-5.223455 h 0.5836 l -2.67684,5.223455 z"
         style="font-weight:bold;font-family:'Corsiva Hebrew';-inkscape-font-specification:'Corsiva Hebrew Bold'"
         id="path2502" />
      <path
         d="m 146.94639,89.962978 -0.28939,0.530545 -2.79259,1.297423 0.25563,-0.660769 2.17523,-0.959804 -2.44051,-1.085205 0.63183,-0.279742 z"
         style="font-weight:bold;font-family:'Corsiva Hebrew';-inkscape-font-specification:'Corsiva Hebrew Bold'"
         id="path2504" />
    </g>
  </g>
</svg>
