<?xml version="1.0" encoding="UTF-8" standalone="no"?>
<!-- Created with Inkscape (http://www.inkscape.org/) -->

<svg
   width="24.395409mm"
   height="7.2781067mm"
   viewBox="0 0 24.395409 7.2781067"
   version="1.1"
   id="svg5"
   xmlns:inkscape="http://www.inkscape.org/namespaces/inkscape"
   xmlns:sodipodi="http://sodipodi.sourceforge.net/DTD/sodipodi-0.dtd"
   xmlns="http://www.w3.org/2000/svg"
   xmlns:svg="http://www.w3.org/2000/svg">
  <sodipodi:namedview
     id="namedview7"
     pagecolor="#ffffff"
     bordercolor="#000000"
     borderopacity="0.25"
     inkscape:showpageshadow="2"
     inkscape:pageopacity="0.0"
     inkscape:pagecheckerboard="0"
     inkscape:deskcolor="#d1d1d1"
     inkscape:document-units="mm"
     showgrid="false" />
  <defs
     id="defs2" />
  <g
     inkscape:label="Layer 1"
     inkscape:groupmode="layer"
     id="layer1"
     transform="translate(-77.41266,-129.6266)">
    <g
       aria-label="&lt;DT/&gt;"
       id="text457"
       style="font-weight:800;font-size:9.87778px;line-height:13.2292px;font-family:Avenir;-inkscape-font-specification:'Avenir Ultra-Bold';text-align:center;text-anchor:middle;fill:#2b365f;fill-rule:evenodd;stroke-width:0.215;stroke-linejoin:round">
      <path
         d="m 77.412659,135.0478 0.284565,-0.53055 2.797418,-1.2926 -0.260449,0.66077 -2.170411,0.95498 2.440506,1.09003 -0.636653,0.27492 z"
         style="font-weight:bold;font-family:'Corsiva Hebrew';-inkscape-font-specification:'Corsiva Hebrew Bold'"
         id="path2507" />
      <path
         d="m 88.587862,133.22465 q 0,1.00322 -0.458197,1.79903 -0.458198,0.791 -1.157553,1.21543 -0.525721,0.31833 -1.152729,0.44373 -0.627008,0.1254 -1.485526,0.1254 h -2.532145 v -7.18164 h 2.604493 q 0.87781,0 1.514464,0.14951 0.636654,0.1447 1.070736,0.41479 0.742762,0.45338 1.167198,1.22508 0.429259,0.76688 0.429259,1.80867 z m -1.914784,-0.0145 q 0,-0.709 -0.260449,-1.2106 -0.255627,-0.50643 -0.81511,-0.791 -0.284565,-0.13987 -0.5836,-0.1881 -0.294211,-0.053 -0.892279,-0.053 h -0.467845 v 4.49516 h 0.467845 q 0.660769,0 0.96945,-0.0579 0.30868,-0.0627 0.602891,-0.22186 0.50643,-0.28939 0.742763,-0.77171 0.236334,-0.48713 0.236334,-1.20096 z"
         style="font-weight:bold;font-family:'Corsiva Hebrew';-inkscape-font-specification:'Corsiva Hebrew Bold'"
         id="path2509" />
      <path
         d="m 95.619993,131.01566 h -2.242757 v 5.79258 h -1.852084 v -5.79258 h -2.242758 v -1.38906 h 6.337599 z"
         style="font-weight:bold;font-family:'Corsiva Hebrew';-inkscape-font-specification:'Corsiva Hebrew Bold'"
         id="path2511" />
      <path
         d="m 95.513884,136.90471 2.67684,-5.22346 h 0.583599 l -2.676839,5.22346 z"
         style="font-weight:bold;font-family:'Corsiva Hebrew';-inkscape-font-specification:'Corsiva Hebrew Bold'"
         id="path2513" />
      <path
         d="m 101.80807,134.51725 -0.28938,0.53055 -2.792599,1.29742 0.255626,-0.66077 2.175233,-0.9598 -2.440505,-1.08521 0.631831,-0.27974 z"
         style="font-weight:bold;font-family:'Corsiva Hebrew';-inkscape-font-specification:'Corsiva Hebrew Bold'"
         id="path2515" />
    </g>
  </g>
</svg>
